<?xml version="1.0" encoding="UTF-8"?>
<!-- Created with Inkscape (http://www.inkscape.org/) -->
<svg width="168.05mm" height="168.05mm" version="1.1" viewBox="0 0 168.05 168.05" xmlns="http://www.w3.org/2000/svg" xmlns:cc="http://creativecommons.org/ns#" xmlns:dc="http://purl.org/dc/elements/1.1/" xmlns:rdf="http://www.w3.org/1999/02/22-rdf-syntax-ns#">
 <metadata>
  <rdf:RDF>
   <cc:Work rdf:about="">
    <dc:format>image/svg+xml</dc:format>
    <dc:type rdf:resource="http://purl.org/dc/dcmitype/StillImage"/>
    <dc:title/>
   </cc:Work>
  </rdf:RDF>
 </metadata>
 <g transform="translate(-22.166 -54.148)">
  <g transform="matrix(10.84,0,0,10.84,-975.95,-623.8)">
   <path d="m98.995 64.444a5.4957 5.4957 0 0 1 5.4958 5.4958 5.4957 5.4957 0 0 1-5.4958 5.4953 5.4957 5.4957 0 0 1-5.4958-5.4953 5.4957 5.4957 0 0 1 0.92398-3.0432 4.5954 4.5954 0 0 0-0.57309 2.2128 4.5954 4.5954 0 0 0 4.5951 4.5956 4.5954 4.5954 0 0 0 4.5956-4.5956 4.5954 4.5954 0 0 0-4.5956-4.5956 4.5954 4.5954 0 0 0-0.41961 0.02119 5.4957 5.4957 0 0 1 0.96945-0.09095z"/>
   <circle transform="scale(-1,1)" cx="-96.446" cy="65.566" r=".88533"/>
   <g fill-rule="evenodd">
    <path d="m99.444 68.761-6.7741 4.8041-0.33281-0.09145 1.131 1.3039-0.04348-0.3424z"/>
    <path d="m107.32 62.54-6.7741 4.8041-0.33281-0.09145 1.131 1.3039-0.0435-0.3424z"/>
    <path d="m106.41 75.965-4.4555-5.2485 0.0516-0.28144-0.99536 1.0279 0.27964-0.06057z"/>
    <path d="m98.807 78.041 0.56071-5.4225 0.2355-0.12844-1.4307 0.0182 0.24057 0.12241z"/>
   </g>
  </g>
 </g>
</svg>
