<?xml version="1.0" encoding="UTF-8"?>
<!-- Created with Inkscape (http://www.inkscape.org/) -->
<svg width="187.8mm" height="187.8mm" version="1.1" viewBox="0 0 187.8 187.8" xmlns="http://www.w3.org/2000/svg" xmlns:cc="http://creativecommons.org/ns#" xmlns:dc="http://purl.org/dc/elements/1.1/" xmlns:rdf="http://www.w3.org/1999/02/22-rdf-syntax-ns#">
 <metadata>
  <rdf:RDF>
   <cc:Work rdf:about="">
    <dc:format>image/svg+xml</dc:format>
    <dc:type rdf:resource="http://purl.org/dc/dcmitype/StillImage"/>
    <dc:title/>
   </cc:Work>
  </rdf:RDF>
 </metadata>
 <g transform="translate(-26.698 -76.551)">
  <g transform="matrix(12.921,0,0,12.921,-2094.3,-359.44)">
   <path transform="scale(.26458)" d="m657.49 127.56 0.74023 1.4961-11.373 17.764a8.6562 8.6562 0 0 1 3.1621 1.9355l13.035-16.912 1.666-0.10937zm-19.703 33.426-13.754 21.482 15.49-20.098a8.6562 8.6562 0 0 1-1.7363-1.3848z" fill-rule="evenodd"/>
   <path d="m171.37 45.903a5.4957 5.4957 0 0 0 5.4958-5.4958 5.4957 5.4957 0 0 0-5.4958-5.4953 5.4957 5.4957 0 0 0-5.4958 5.4953 5.4957 5.4957 0 0 0 0.92398 3.0432 4.5954 4.5954 0 0 1-0.5731-2.2128 4.5954 4.5954 0 0 1 4.5951-4.5956 4.5954 4.5954 0 0 1 4.5956 4.5956 4.5954 4.5954 0 0 1-4.5956 4.5956 4.5954 4.5954 0 0 1-0.41961-0.02119 5.4957 5.4957 0 0 0 0.96945 0.09095z"/>
   <path d="m169.97 38.693-1.3326-4.3866-0.24778-0.11191 1.2635-0.45182-0.17264 0.26226z" fill-rule="evenodd"/>
   <path d="m172.78 40.827 4.3866-1.3326 0.11191-0.24778 0.45182 1.2635-0.26225-0.17264z" fill-rule="evenodd"/>
   <circle cx="170.44" cy="40.833" r=".88533"/>
  </g>
 </g>
</svg>
