<?xml version="1.0" encoding="UTF-8"?>
<!-- Created with Inkscape (http://www.inkscape.org/) -->
<svg width="196.41mm" height="196.41mm" version="1.1" viewBox="0 0 196.41 196.41" xmlns="http://www.w3.org/2000/svg" xmlns:cc="http://creativecommons.org/ns#" xmlns:dc="http://purl.org/dc/elements/1.1/" xmlns:rdf="http://www.w3.org/1999/02/22-rdf-syntax-ns#">
 <metadata>
  <rdf:RDF>
   <cc:Work rdf:about="">
    <dc:format>image/svg+xml</dc:format>
    <dc:type rdf:resource="http://purl.org/dc/dcmitype/StillImage"/>
    <dc:title/>
   </cc:Work>
  </rdf:RDF>
 </metadata>
 <g transform="translate(-12.558 -50.261)">
  <g transform="matrix(15.417,0,0,15.417,-897.33,-931.54)">
   <path d="m65.477 63.683a5.4957 5.4957 0 0 1 5.4958 5.4958 5.4957 5.4957 0 0 1-5.4958 5.4953 5.4957 5.4957 0 0 1-5.4958-5.4953 5.4957 5.4957 0 0 1 0.92398-3.0432 4.5954 4.5954 0 0 0-0.5731 2.2128 4.5954 4.5954 0 0 0 4.5951 4.5956 4.5954 4.5954 0 0 0 4.5956-4.5956 4.5954 4.5954 0 0 0-4.5956-4.5956 4.5954 4.5954 0 0 0-0.41961 0.02119 5.4957 5.4957 0 0 1 0.96945-0.09095z"/>
   <path d="m62.471 66.03 6.8407 8.2224 0.44122-0.02156-1.7759 1.3139 0.14967-0.41562z" fill-rule="evenodd"/>
   <path d="m59.804 63.717 7.4894 12.51-2.3817 0.19592 0.70084-0.34201z" fill-rule="evenodd"/>
   <circle cx="67.106" cy="68.413" r=".88533"/>
  </g>
 </g>
</svg>
