<?xml version="1.0" encoding="UTF-8"?>
<!-- Created with Inkscape (http://www.inkscape.org/) -->
<svg width="199.27mm" height="199.27mm" version="1.1" viewBox="0 0 199.27 199.27" xmlns="http://www.w3.org/2000/svg" xmlns:cc="http://creativecommons.org/ns#" xmlns:dc="http://purl.org/dc/elements/1.1/" xmlns:rdf="http://www.w3.org/1999/02/22-rdf-syntax-ns#">
 <metadata>
  <rdf:RDF>
   <cc:Work rdf:about="">
    <dc:format>image/svg+xml</dc:format>
    <dc:type rdf:resource="http://purl.org/dc/dcmitype/StillImage"/>
    <dc:title/>
   </cc:Work>
  </rdf:RDF>
 </metadata>
 <g transform="translate(-7.451 -62.047)">
  <g transform="matrix(13.444,0,0,13.444,-551.36,-806.02)">
   <path transform="scale(.26458)" d="m182.26 244.21c-0.10875 3e-3 -0.21748 7e-3 -0.32617 0.0117 8.2638 0.12355 14.906 7.638 14.912 16.869 3.1e-4 9.3244-6.4137 16.22-14.762 16.22-8.348 5.1e-4 -13.679-8.3097-13.259-18.054 1.3541-2.1138-1.4934-4.0624-0.15112-6.6327l-1.4102-1.5332c-3.0963 3.5919-4.8005 8.1758-4.8027 12.918 9e-5 10.935 8.8643 19.799 19.799 19.799 10.935 9.9e-4 19.801-8.8635 19.801-19.799-9e-5 -10.935-8.8655-19.8-19.801-19.799z"/>
   <path d="m54.97 77.013-4.9624-5.5927-0.28581 0.03229 1.0995-0.92736-0.08003 0.27627z" fill-rule="evenodd"/>
   <path d="m54.816 79.392-11.205-11.919 1.0155-0.63422z" fill-rule="evenodd"/>
   <circle cx="46.568" cy="65.454" r=".88533"/>
  </g>
 </g>
</svg>
