<?xml version="1.0" encoding="UTF-8"?>
<!-- Created with Inkscape (http://www.inkscape.org/) -->
<svg width="198.72mm" height="198.72mm" version="1.1" viewBox="0 0 198.72 198.72" xmlns="http://www.w3.org/2000/svg" xmlns:cc="http://creativecommons.org/ns#" xmlns:dc="http://purl.org/dc/elements/1.1/" xmlns:rdf="http://www.w3.org/1999/02/22-rdf-syntax-ns#">
 <metadata>
  <rdf:RDF>
   <cc:Work rdf:about="">
    <dc:format>image/svg+xml</dc:format>
    <dc:type rdf:resource="http://purl.org/dc/dcmitype/StillImage"/>
    <dc:title/>
   </cc:Work>
  </rdf:RDF>
 </metadata>
 <g transform="translate(-8.8086 -11.2)">
  <g transform="matrix(10.567,0,0,10.567,-1142.7,-952.47)">
   <path d="m123.16 104.13a5.4957 5.4957 0 0 0-2.323-7.4169 5.4957 5.4957 0 0 0-7.4165 2.3232 5.4957 5.4957 0 0 0 2.3225 7.4167 5.4957 5.4957 0 0 0 3.1249 0.59159 4.5954 4.5954 0 0 1-2.2264-0.51766 4.5954 4.5954 0 0 1-1.9427-6.2016 4.5954 4.5954 0 0 1 6.2021-1.9425 4.5954 4.5954 0 0 1 1.9425 6.202 4.5954 4.5954 0 0 1-0.21325 0.36201 5.4957 5.4957 0 0 0 0.52983-0.81693z"/>
   <circle cx="118.85" cy="102.61" r=".88533"/>
   <g fill-rule="evenodd">
    <path d="m126.49 94.812-6.7741 4.8041-0.33281-0.0914 1.131 1.3039-0.0435-0.3424z"/>
    <path d="m127.78 96.566-6.7741 4.8041-0.33281-0.0914 1.131 1.3039-0.0435-0.3424z"/>
    <path d="m108.97 106.91 7.2275-4.0905 0.32179 0.12477-0.99254-1.4121 8e-3 0.34505z"/>
    <path d="m113.38 92.198 3.3673 7.5914-0.1555 0.30812 1.502-0.85032-0.34423-0.02517z"/>
    <path d="m110.28 109 7.2275-4.0905 0.32179 0.12477-0.99254-1.4121 8e-3 0.34505z"/>
   </g>
  </g>
 </g>
</svg>
