<?xml version="1.0" encoding="UTF-8"?>
<!-- Created with Inkscape (http://www.inkscape.org/) -->
<svg width="205.55mm" height="205.55mm" version="1.1" viewBox="0 0 205.55 205.55" xmlns="http://www.w3.org/2000/svg" xmlns:cc="http://creativecommons.org/ns#" xmlns:dc="http://purl.org/dc/elements/1.1/" xmlns:rdf="http://www.w3.org/1999/02/22-rdf-syntax-ns#">
 <metadata>
  <rdf:RDF>
   <cc:Work rdf:about="">
    <dc:format>image/svg+xml</dc:format>
    <dc:type rdf:resource="http://purl.org/dc/dcmitype/StillImage"/>
    <dc:title/>
   </cc:Work>
  </rdf:RDF>
 </metadata>
 <g transform="translate(-4.3752 -60.814)">
  <g transform="matrix(13.005,0,0,13.005,-1903.3,-1562.3)">
   <path d="m156.13 125.46a5.4957 5.4957 0 0 0-5.4958 5.4958 5.4957 5.4957 0 0 0 5.4958 5.4953 5.4957 5.4957 0 0 0 5.4958-5.4953 5.4957 5.4957 0 0 0-0.92397-3.0432 4.5954 4.5954 0 0 1 0.57309 2.2128 4.5954 4.5954 0 0 1-4.5951 4.5956 4.5954 4.5954 0 0 1-4.5956-4.5956 4.5954 4.5954 0 0 1 4.5956-4.5956 4.5954 4.5954 0 0 1 0.41962 0.0212 5.4957 5.4957 0 0 0-0.96946-0.0909z"/>
   <circle cx="158.56" cy="126.74" r=".88533"/>
   <path d="m156.75 130.45-4.1786 9.7731 0.20433 0.39163-1.9369-1.0623 0.44008-0.0382z" fill-rule="evenodd"/>
   <path d="m148.47 136.14-0.24408 0.36817-6e-3 -2.2091 0.24616 0.36679c2.5053 0.40337 6.0576-2.2089 7.6248-5.3465-0.13919 1.6355-3.4534 6.4373-7.6209 6.8206z" fill-rule="evenodd"/>
   <path d="m148.53 132.94 1.0914-1.141c-1.2709-1.1681-0.65593-5.314 3.7703-6.9453-2.8151-0.54695-7.9952 3.5564-4.8617 8.0863z" fill-rule="evenodd"/>
  </g>
 </g>
</svg>
