<?xml version="1.0" encoding="UTF-8"?>
<!-- Created with Inkscape (http://www.inkscape.org/) -->
<svg width="178.33mm" height="178.33mm" version="1.1" viewBox="0 0 178.33 178.33" xmlns="http://www.w3.org/2000/svg" xmlns:cc="http://creativecommons.org/ns#" xmlns:dc="http://purl.org/dc/elements/1.1/" xmlns:rdf="http://www.w3.org/1999/02/22-rdf-syntax-ns#">
 <metadata>
  <rdf:RDF>
   <cc:Work rdf:about="">
    <dc:format>image/svg+xml</dc:format>
    <dc:type rdf:resource="http://purl.org/dc/dcmitype/StillImage"/>
    <dc:title/>
   </cc:Work>
  </rdf:RDF>
 </metadata>
 <g transform="translate(-18.557 -43.978)">
  <g transform="matrix(9.4725,0,0,9.4725,-1025,-542.72)">
   <path d="m120.58 65.221a5.4957 5.4957 0 0 0-5.4958 5.4958 5.4957 5.4957 0 0 0 5.4958 5.4953 5.4957 5.4957 0 0 0 5.4958-5.4953 5.4957 5.4957 0 0 0-0.92397-3.0432 4.5954 4.5954 0 0 1 0.57309 2.2128 4.5954 4.5954 0 0 1-4.5951 4.5956 4.5954 4.5954 0 0 1-4.5956-4.5956 4.5954 4.5954 0 0 1 4.5956-4.5956 4.5954 4.5954 0 0 1 0.41962 0.02119 5.4957 5.4957 0 0 0-0.96945-0.09095z"/>
   <circle cx="120.58" cy="70.389" r=".88533"/>
   <g fill-rule="evenodd">
    <path d="m129 62.984-6.7741 4.8041-0.33281-0.09145 1.131 1.3039-0.0435-0.3424z"/>
    <path d="m116.95 80.383 3.0806-6.7725 0.29694-0.07825-1.4506-0.50582 0.18573 0.24656z"/>
    <path d="m110.17 70.576 7.2611 0.79413 0.16866 0.2868-3e-3 -1.726-0.16773 0.28751z"/>
    <path d="m126.39 77.109-1.9621-4.4717 0.14515-0.29938-1.4347 0.95955 0.33227-0.01984z"/>
    <path d="m116.63 62.317 2.3522 4.2794-0.11794 0.31111 1.3437-1.0834-0.32919 0.04932z"/>
   </g>
  </g>
 </g>
</svg>
