<?xml version="1.0" encoding="UTF-8"?>
<!-- Created with Inkscape (http://www.inkscape.org/) -->
<svg width="195.42mm" height="195.42mm" version="1.1" viewBox="0 0 195.42 195.42" xmlns="http://www.w3.org/2000/svg" xmlns:cc="http://creativecommons.org/ns#" xmlns:dc="http://purl.org/dc/elements/1.1/" xmlns:rdf="http://www.w3.org/1999/02/22-rdf-syntax-ns#">
 <metadata>
  <rdf:RDF>
   <cc:Work rdf:about="">
    <dc:format>image/svg+xml</dc:format>
    <dc:type rdf:resource="http://purl.org/dc/dcmitype/StillImage"/>
    <dc:title/>
   </cc:Work>
  </rdf:RDF>
 </metadata>
 <g transform="translate(-5.5167 -60.508)">
  <g transform="matrix(16.666,0,0,16.666,-931.91,-1505)">
   <g transform="translate(-39.864,57.817)">
    <path transform="scale(.26458)" d="m385.42 138.28a21.272 21.272 0 0 0-21.271 21.271 21.272 21.272 0 0 0 21.271 21.273 15.379 17.723 0 0 1-15.379-17.725 15.379 17.723 0 0 1 15.379-17.723 15.379 17.723 0 0 1 15.379 17.723 15.379 17.723 0 0 1-15.379 17.725 21.272 21.272 0 0 0 21.273-21.273 21.272 21.272 0 0 0-21.273-21.271z"/>
    <path transform="scale(.26458)" d="m385.43 150.47a11.384 11.384 0 0 0-11.385 11.383 11.384 11.384 0 0 0 11.385 11.385 8.2143 8.7277 0 0 1-8.2148-8.7285 8.2143 8.7277 0 0 1 8.2148-8.7266 8.2143 8.7277 0 0 1 8.2129 8.7266 8.2143 8.7277 0 0 1-7.6328 8.707 11.384 11.384 0 0 0 10.803-11.363 11.384 11.384 0 0 0-11.383-11.383z"/>
    <circle cx="101.99" cy="44.171" r=".88533"/>
    <path d="m104.95 45.253-7.6113-7.608-0.90654 0.26263 2.0128-1.7899-0.0047 0.54774z" fill-rule="evenodd"/>
   </g>
  </g>
 </g>
</svg>
