<?xml version="1.0" encoding="UTF-8"?>
<!-- Created with Inkscape (http://www.inkscape.org/) -->
<svg width="225.46mm" height="225.46mm" version="1.1" viewBox="0 0 225.46 225.46" xmlns="http://www.w3.org/2000/svg" xmlns:cc="http://creativecommons.org/ns#" xmlns:dc="http://purl.org/dc/elements/1.1/" xmlns:rdf="http://www.w3.org/1999/02/22-rdf-syntax-ns#">
 <metadata>
  <rdf:RDF>
   <cc:Work rdf:about="">
    <dc:format>image/svg+xml</dc:format>
    <dc:type rdf:resource="http://purl.org/dc/dcmitype/StillImage"/>
    <dc:title/>
   </cc:Work>
  </rdf:RDF>
 </metadata>
 <g transform="translate(10.285 -56.508)">
  <g transform="matrix(14.732,0,0,14.732,-2128.8,-443.69)">
   <path transform="scale(.26458)" d="m575.5 128.33a20.771 20.771 0 0 0-20.771 20.771 20.771 20.771 0 0 0 20.771 20.77 20.771 20.771 0 0 0 20.771-20.77 20.771 20.771 0 0 0-3.4922-11.502 17.368 17.368 0 0 1 2.166 8.3633 17.368 17.368 0 0 1-17.367 17.369 17.368 17.368 0 0 1-17.369-17.369 17.368 17.368 0 0 1 17.369-17.369 17.368 17.368 0 0 1 1.5859 0.0801 20.771 20.771 0 0 0-3.6641-0.34376z"/>
   <circle cx="154.82" cy="35.076" r=".88533"/>
   <path d="m145.15 48.443 4.9999-11.199-0.19573-0.39601 1.6617 0.92329z" fill-rule="evenodd"/>
   <path d="m147.15 49.257 4.3918-9.6791-0.19573-0.39601 1.9131 1.1045-0.44082 0.02851z" fill-rule="evenodd"/>
  </g>
 </g>
</svg>
